<svg width="300" height="287" viewBox="0 0 300 287" fill="none" xmlns="http://www.w3.org/2000/svg">
<g clip-path="url(#clip0_9_62)">
<path d="M150 269.062C115.19 269.062 81.8064 255.834 57.1922 232.286C32.5781 208.739 18.75 176.801 18.75 143.5C18.75 110.199 32.5781 78.2614 57.1922 54.7139C81.8064 31.1664 115.19 17.9375 150 17.9375C184.81 17.9375 218.194 31.1664 242.808 54.7139C267.422 78.2614 281.25 110.199 281.25 143.5C281.25 176.801 267.422 208.739 242.808 232.286C218.194 255.834 184.81 269.062 150 269.062ZM150 287C189.782 287 227.936 271.881 256.066 244.97C284.196 218.058 300 181.559 300 143.5C300 105.441 284.196 68.9417 256.066 42.0302C227.936 15.1187 189.782 0 150 0C110.218 0 72.0644 15.1187 43.934 42.0302C15.8035 68.9417 0 105.441 0 143.5C0 181.559 15.8035 218.058 43.934 244.97C72.0644 271.881 110.218 287 150 287Z" fill="white"/>
<path d="M80.3437 171.608C82.497 170.419 85.0558 170.097 87.4575 170.712C89.8591 171.328 91.9067 172.831 93.15 174.891C98.9083 184.439 107.195 192.368 117.175 197.879C127.155 203.39 138.477 206.288 150 206.281C161.523 206.288 172.845 203.39 182.825 197.879C192.805 192.368 201.092 184.439 206.85 174.891C207.461 173.862 208.279 172.96 209.256 172.235C210.233 171.511 211.35 170.978 212.544 170.668C213.737 170.358 214.982 170.277 216.208 170.43C217.434 170.582 218.617 170.965 219.687 171.556C220.758 172.148 221.696 172.936 222.447 173.876C223.198 174.815 223.747 175.888 224.063 177.031C224.379 178.175 224.456 179.367 224.288 180.538C224.121 181.71 223.713 182.839 223.087 183.859C215.684 196.135 205.03 206.328 192.2 213.413C179.369 220.498 164.814 224.225 150 224.219C135.186 224.225 120.631 220.498 107.8 213.413C94.9697 206.328 84.3164 196.135 76.9125 183.859C75.6693 181.799 75.3325 179.351 75.9759 177.054C76.6194 174.756 78.1905 172.797 80.3437 171.608ZM131.25 116.594C131.25 131.446 122.85 143.5 112.5 143.5C102.15 143.5 93.75 131.446 93.75 116.594C93.75 101.741 102.15 89.6875 112.5 89.6875C122.85 89.6875 131.25 101.741 131.25 116.594ZM206.25 116.594C206.25 131.446 197.85 143.5 187.5 143.5C177.15 143.5 168.75 131.446 168.75 116.594C168.75 101.741 177.15 89.6875 187.5 89.6875C197.85 89.6875 206.25 101.741 206.25 116.594Z" fill="white"/>
</g>
<defs>
<clipPath id="clip0_9_62">
<rect width="300" height="287" fill="white"/>
</clipPath>
</defs>
</svg>
