<svg width="276" height="276" viewBox="0 0 276 276" fill="none" xmlns="http://www.w3.org/2000/svg">
<path d="M138 0C61.908 0 0 61.908 0 138C0 214.098 61.908 276 138 276C214.098 276 276 214.098 276 138C276 61.908 214.098 0 138 0ZM202.962 87.372L133.896 189.15L79.914 139.056C77.484 136.806 77.34 133.008 79.596 130.578C81.846 128.142 85.65 128.01 88.074 130.26L131.814 170.844L193.032 80.628C194.898 77.886 198.63 77.178 201.366 79.032C204.114 80.892 204.828 84.624 202.962 87.372Z" fill="white"/>
</svg>
